<?xml version="1.0" standalone="no"?>
<!DOCTYPE svg PUBLIC "-//W3C//DTD SVG 20010904//EN"
 "http://www.w3.org/TR/2001/REC-SVG-20010904/DTD/svg10.dtd">
<svg version="1.0" xmlns="http://www.w3.org/2000/svg"
 width="2000.000000pt" height="2000.000000pt" viewBox="0 0 2000.000000 2000.000000"
 preserveAspectRatio="xMidYMid meet">
<metadata>
Created by potrace 1.14, written by Peter Selinger 2001-2017
</metadata>
<g transform="translate(0.000000,2000.000000) scale(0.100000,-0.100000)"
fill="#000000" stroke="none">
<path d="M4828 19035 c-2 -1 -51 -6 -110 -9 -59 -4 -117 -9 -130 -11 -13 -2
-48 -6 -78 -9 -183 -20 -273 -39 -276 -56 -1 -8 -5 -28 -8 -45 -3 -16 -11 -59
-16 -95 -6 -36 -13 -76 -15 -90 -16 -90 -30 -217 -42 -385 -14 -186 -7 -679
11 -770 2 -11 7 -56 11 -100 4 -44 8 -82 10 -85 2 -3 6 -27 9 -55 13 -101 28
-182 47 -270 11 -49 22 -101 25 -115 3 -14 14 -59 25 -100 141 -533 343 -982
648 -1445 36 -55 70 -104 74 -110 4 -5 26 -35 48 -65 22 -30 49 -65 60 -78
l19 -22 -53 5 c-182 16 -278 20 -492 20 -132 -1 -280 -4 -330 -9 -85 -7 -109
-10 -187 -20 -18 -3 -55 -8 -83 -12 -27 -3 -57 -8 -67 -9 -9 -2 -37 -7 -62
-10 -33 -5 -46 -12 -47 -24 0 -9 -2 -23 -4 -31 -8 -37 -16 -78 -21 -110 -3
-19 -7 -46 -10 -60 -16 -88 -42 -315 -49 -431 -6 -82 -6 -533 -1 -579 2 -19 7
-78 11 -130 3 -52 8 -102 10 -110 2 -8 7 -44 10 -80 4 -36 8 -72 10 -80 1 -8
8 -49 15 -90 7 -41 23 -127 37 -190 31 -145 29 -137 42 -185 5 -22 17 -68 25
-102 35 -140 183 -561 207 -587 5 -6 9 -16 9 -23 0 -15 159 -342 214 -440 81
-144 198 -328 282 -445 27 -36 56 -76 64 -88 35 -51 199 -252 274 -335 107
-118 271 -281 382 -380 122 -108 139 -122 214 -180 36 -28 67 -53 70 -56 27
-35 400 -280 571 -376 57 -32 106 -61 107 -65 2 -5 8 -8 13 -8 5 0 78 -34 163
-75 85 -41 157 -75 160 -75 3 0 29 -11 58 -24 114 -52 479 -181 568 -201 8 -2
51 -13 96 -24 45 -12 90 -23 100 -25 11 -2 37 -9 59 -15 108 -29 442 -84 585
-96 36 -3 81 -8 100 -10 47 -6 318 -17 405 -18 85 0 378 12 420 17 17 3 66 7
110 11 44 4 87 9 96 10 9 2 40 6 70 10 30 4 88 12 130 19 l76 12 0 -1231 0
-1230 -121 1 c-233 4 -712 15 -811 19 -55 3 -167 7 -250 10 -82 3 -172 7 -200
10 -27 2 -88 7 -135 10 -47 3 -103 8 -125 11 -22 3 -56 7 -75 9 -115 13 -148
17 -170 20 -14 2 -68 9 -120 15 -100 12 -145 17 -195 25 -16 2 -50 7 -75 10
-25 3 -67 8 -95 12 -27 3 -59 7 -70 8 -11 1 -42 5 -70 9 -156 23 -273 31 -445
31 -171 0 -235 -13 -277 -55 -26 -25 -26 -25 -8 -115 3 -16 14 -64 25 -105 24
-97 89 -368 95 -398 2 -13 7 -32 10 -42 3 -10 7 -27 9 -37 3 -10 32 -135 66
-278 74 -311 140 -594 145 -615 2 -8 13 -53 25 -100 12 -47 23 -101 26 -120
10 -75 80 -142 212 -206 67 -33 92 -50 93 -64 1 -11 2 -23 3 -27 1 -5 6 -30
11 -58 5 -27 9 -52 10 -55 0 -3 5 -27 10 -55 5 -27 9 -52 10 -55 0 -3 5 -27
10 -55 5 -27 9 -52 10 -55 0 -3 5 -27 10 -55 4 -27 9 -54 11 -60 1 -5 9 -50
18 -100 9 -49 18 -99 20 -110 2 -11 7 -40 12 -65 4 -25 8 -47 9 -50 8 -37 16
-83 20 -115 4 -22 10 -56 15 -75 5 -19 11 -52 14 -73 3 -20 9 -54 12 -75 3
-20 9 -53 14 -72 5 -19 12 -55 16 -80 10 -65 12 -77 29 -165 8 -44 20 -105 25
-135 5 -30 12 -66 15 -80 3 -14 7 -38 10 -55 6 -40 14 -85 20 -111 3 -12 7
-39 10 -60 3 -21 10 -59 16 -84 5 -25 11 -58 14 -75 2 -16 11 -68 20 -115 10
-47 18 -94 20 -105 1 -11 14 -83 28 -160 15 -77 29 -153 32 -170 3 -16 7 -43
10 -60 3 -16 22 -115 41 -220 19 -104 44 -239 54 -300 11 -60 23 -123 26 -140
3 -16 7 -34 8 -40 1 -5 4 -14 8 -20 4 -7 892 -10 2635 -9 1445 1 2649 2 2674
3 l46 1 7 43 c9 60 20 127 31 187 1 8 6 35 10 60 4 25 9 54 11 65 2 11 13 73
24 139 11 65 22 130 25 145 10 60 66 398 71 426 2 17 7 41 9 55 11 52 15 75
20 115 3 22 8 47 10 55 3 8 7 35 11 60 7 53 10 74 18 118 3 17 8 47 11 65 3
17 12 68 20 112 8 44 17 96 20 115 3 19 10 60 15 90 5 30 12 69 14 85 3 17 14
84 25 150 11 66 23 138 26 160 4 22 8 47 10 55 3 8 7 33 10 55 4 22 15 90 26
150 11 61 22 126 25 145 6 38 9 55 18 110 3 19 8 49 11 65 3 17 19 111 35 210
17 99 33 194 36 210 2 17 11 66 19 110 8 44 16 95 19 113 3 24 17 44 46 69 52
45 68 78 91 184 10 48 30 135 44 194 15 59 28 115 30 124 6 27 59 248 135 566
39 165 80 336 90 380 55 230 101 422 106 437 3 11 -6 28 -25 47 -49 48 -133
62 -341 56 -96 -2 -184 -6 -195 -9 -11 -2 -49 -7 -85 -10 -36 -4 -78 -9 -95
-11 -16 -2 -56 -7 -88 -10 -32 -4 -68 -8 -80 -11 -12 -2 -51 -6 -87 -10 -36
-3 -67 -7 -70 -9 -3 -2 -30 -6 -60 -9 -30 -4 -73 -9 -95 -12 -54 -8 -91 -12
-150 -19 -27 -3 -66 -8 -85 -10 -19 -3 -60 -7 -90 -11 -30 -3 -68 -7 -85 -9
-16 -2 -68 -6 -115 -10 -47 -3 -107 -8 -135 -10 -65 -5 -307 -16 -465 -20
-800 -22 -950 -24 -951 -10 -1 5 -2 542 -3 1192 l-1 1183 125 -1 c118 -1 393
9 429 16 9 1 54 6 101 10 47 4 94 9 105 11 11 2 43 6 70 9 42 4 159 24 300 51
16 3 68 14 115 25 47 12 96 23 110 25 14 3 81 21 150 41 863 246 1640 723
2256 1385 111 120 318 374 351 431 6 11 15 22 20 26 13 10 144 207 210 316 58
97 203 360 203 369 0 2 22 51 49 108 67 142 168 397 187 468 2 8 22 72 44 143
22 70 42 137 44 150 3 12 16 67 30 122 13 55 27 116 30 136 3 20 8 42 10 50 3
8 7 30 10 49 3 19 8 46 10 60 8 45 26 164 30 205 3 22 8 58 10 80 6 43 13 143
22 287 l5 92 87 90 c111 116 236 262 339 396 99 129 203 278 203 290 0 4 4 10
9 12 19 7 188 304 281 493 195 396 328 789 404 1195 28 147 32 172 46 295 6
50 13 101 16 115 19 113 26 667 11 830 -5 47 -10 101 -12 120 -6 65 -15 145
-19 165 -2 11 -7 43 -10 70 -12 85 -16 108 -28 165 -6 30 -11 58 -10 63 3 11
-36 24 -98 31 -30 3 -68 9 -85 11 -16 3 -43 7 -60 10 -16 2 -61 7 -100 11 -38
3 -97 9 -130 14 -67 9 -587 6 -680 -4 -83 -8 -155 -17 -185 -21 -14 -2 -50 -7
-80 -10 -30 -4 -64 -9 -75 -11 -11 -3 -33 -6 -50 -9 -305 -46 -771 -185 -1065
-317 -25 -11 -81 -36 -124 -56 -215 -94 -617 -324 -811 -463 -38 -28 -81 -58
-95 -67 -33 -22 -228 -170 -260 -198 -14 -12 -59 -50 -100 -84 -210 -173 -523
-482 -713 -703 -38 -43 -69 -72 -72 -65 -82 257 -247 624 -390 868 -37 63 -73
124 -79 136 -13 23 -168 256 -176 264 -3 3 -25 32 -49 65 -59 79 -160 204
-230 285 -57 66 -352 365 -382 388 -14 11 -32 5 -110 -36 -421 -220 -737 -453
-1078 -792 -110 -109 -151 -154 -261 -280 -41 -47 -184 -230 -217 -277 -19
-26 -59 -85 -90 -130 -31 -46 -59 -83 -63 -83 -4 0 -29 29 -56 63 -237 307
-650 733 -940 967 -43 35 -81 67 -84 70 -3 3 -43 34 -90 70 -47 35 -89 68 -95
73 -5 4 -53 38 -105 75 -82 58 -150 103 -330 218 -168 107 -553 299 -778 389
-301 118 -656 221 -908 261 -20 3 -44 7 -53 9 -9 1 -36 6 -61 10 -25 3 -56 8
-70 10 -36 6 -171 21 -280 31 -62 6 -517 14 -522 9z"/>
</g>
</svg>
